<svg xmlns="http://www.w3.org/2000/svg" viewBox="0 0 383.53 421.18">
  <defs>
    <style>
      .cls-1 {
        fill: none;
        stroke: #fff;
        stroke-miterlimit: 10;
      }
    </style>
  </defs>
  <g id="Layer_2" data-name="Layer 2">
    <g id="Layer_1-2" data-name="Layer 1">
      <path class="cls-1" d="M317.72,112.66c-2.07-.43-4.11-.38-6.17-.64a46.38,46.38,0,0,0-33.06-64.87A46.26,46.26,0,0,0,246,52.54,81.57,81.57,0,0,0,90.36,64.19,46.58,46.58,0,0,0,65.05,89.3a46.63,46.63,0,0,0-41.84,83.07,28.36,28.36,0,0,0,45.93,33.22c15-.11,33.77,4.19,49.54,21.49,15.55,54.14-26.14,177.39-26.14,177.39l104.29,16.11s-18.47-94.76-5.05-148.28c17.25-16,41.27-17.22,59.38-15.11a80.27,80.27,0,0,0,33.63,15.63,81.76,81.76,0,1,0,32.93-160.16ZM90.15,150.4a47.38,47.38,0,0,0,8.49,2.65,46.34,46.34,0,0,0,26.72-2.42c1.88,1.22,3.94,2.19,5.92,3.26-.72,10.77-2.25,22.26-5.55,30.06-5.57,13.16-30.06-7.3-44-20.52A46.19,46.19,0,0,0,90.15,150.4Zm9.17,54.82a77.68,77.68,0,0,0-26.4-6.07,28.26,28.26,0,0,0,1.53-17.05c8.3,6.69,18.87,15,32.27,25.31a29.58,29.58,0,0,1,7.56,8.94C108.72,211.18,103.34,206.89,99.32,205.22ZM197.08,257c7.69-16.72,19.12-25.38,30.36-29.75a83.37,83.37,0,0,0,12.23,18.92C221.27,245.34,207.37,250.28,197.08,257Zm24.09-80.73a81.3,81.3,0,0,0-1.45,18.88c-28.68,15-32.69-11.43-31.65-33.33A81.79,81.79,0,0,0,238,127.37a46.8,46.8,0,0,0,7.71,5.61A81.15,81.15,0,0,0,221.17,176.27Z"/>
    </g>
  </g>
</svg>
