<?xml version="1.0" encoding="utf-8"?><svg xmlns="http://www.w3.org/2000/svg" xmlns:xlink="http://www.w3.org/1999/xlink"><symbol viewBox="0 0 394.47 422.56" id="tree" xmlns="http://www.w3.org/2000/svg"><g data-name="Layer 2"><path d="M317.72 112.66c-2.07-.43-4.11-.38-6.17-.64a46.38 46.38 0 00-33.06-64.87A46.26 46.26 0 00246 52.54 81.57 81.57 0 0090.36 64.19 46.58 46.58 0 0065.05 89.3a46.63 46.63 0 00-41.84 83.07 28.36 28.36 0 0045.93 33.22c15-.11 33.77 4.19 49.54 21.49 15.55 54.14-26.14 177.39-26.14 177.39l104.29 16.11s-18.47-94.76-5.05-148.28c17.25-16 41.27-17.22 59.38-15.11a80.27 80.27 0 0033.63 15.63 81.76 81.76 0 1032.93-160.16zM90.15 150.4a47.38 47.38 0 008.49 2.65 46.34 46.34 0 0026.72-2.42c1.88 1.22 3.94 2.19 5.92 3.26-.72 10.77-2.25 22.26-5.55 30.06-5.57 13.16-30.06-7.3-44-20.52a46.19 46.19 0 008.42-13.03zm9.17 54.82a77.68 77.68 0 00-26.4-6.07 28.26 28.26 0 001.53-17.05c8.3 6.69 18.87 15 32.27 25.31a29.58 29.58 0 017.56 8.94c-5.56-5.17-10.94-9.46-14.96-11.13zM197.08 257c7.69-16.72 19.12-25.38 30.36-29.75a83.37 83.37 0 0012.23 18.92c-18.4-.83-32.3 4.11-42.59 10.83zm24.09-80.73a81.3 81.3 0 00-1.45 18.88c-28.68 15-32.69-11.43-31.65-33.33A81.79 81.79 0 00238 127.37a46.8 46.8 0 007.71 5.61 81.15 81.15 0 00-24.54 43.29z" data-name="Layer 1"/></g></symbol><symbol viewBox="0 0 18 16" id="v" xmlns="http://www.w3.org/2000/svg"><path d="M2 5.889L7.5 12 16 2"/></symbol><symbol viewBox="0 0 40 27" id="v-big" xmlns="http://www.w3.org/2000/svg"><path d="M2 11l13.371 13L38 2"/></symbol><symbol viewBox="0 0 24 17" id="v-bold" xmlns="http://www.w3.org/2000/svg"><path d="M2 5.263L8.667 15 22 2"/></symbol><symbol viewBox="0 0 20 15" id="v-strong" xmlns="http://www.w3.org/2000/svg"><path d="M2 6.09L7.943 12 18 2"/></symbol><symbol viewBox="0 0 16 16" id="x" xmlns="http://www.w3.org/2000/svg"><path d="M2 2l12 12M2 14L14 2"/></symbol></svg>